<?xml version="1.0" encoding="utf-8"?>
<!-- Generator: Adobe Illustrator 23.0.3, SVG Export Plug-In . SVG Version: 6.00 Build 0)  -->
<svg version="1.1" id="Layer_1" xmlns="http://www.w3.org/2000/svg" xmlns:xlink="http://www.w3.org/1999/xlink" x="0px" y="0px"
	 viewBox="0 0 119.57 60" style="enable-background:new 0 0 119.57 60;" xml:space="preserve">
<style type="text/css">
	.st0{fill:#6ecac5;}
	.st1{fill:#6ecac5;stroke:#6ecac5;stroke-width:0.5;stroke-miterlimit:10;}
	.st2{fill:#584a9c;stroke:#584a9c;stroke-miterlimit:10;}
	.st3{fill:#584a9c;stroke:#584a9c;stroke-width:0.5;stroke-miterlimit:10;}
	.st4{fill:#584a9c;}
</style>
<path class="st4" d="M40.48,55.16H24.93c-6.45,0-11.68-5.23-11.68-11.68V27.84c0-6.45,5.23-11.68,11.68-11.68h15.55
	c6.45,0,11.68,5.23,11.68,11.68v15.63C52.16,49.93,46.93,55.16,40.48,55.16z"/>
<g>
	<g>
		<path class="st1" d="M30.34,27.48v1.88h-5.43v16.38h-1.9V29.36h-5.5v-1.88H30.34z"/>
		<path class="st0" d="M34.66,33.22v2.48h-1.25c-0.52,0-1.01,0.1-1.46,0.29c-0.45,0.19-0.85,0.46-1.2,0.81
			c-0.34,0.34-0.61,0.74-0.81,1.2c-0.19,0.45-0.29,0.94-0.29,1.46v6.26h-2.5v-6.26c0-0.87,0.16-1.68,0.49-2.43
			c0.32-0.75,0.77-1.41,1.35-1.97c0.57-0.57,1.24-1.01,2-1.33c0.76-0.32,1.57-0.49,2.42-0.49H34.66z"/>
		<path class="st0" d="M48.53,33.22v6.23c0,0.85-0.16,1.66-0.49,2.42c-0.32,0.76-0.77,1.43-1.35,2c-0.58,0.57-1.24,1.02-1.99,1.35
			c-0.75,0.32-1.56,0.49-2.43,0.49c-0.85,0-1.66-0.16-2.42-0.49c-0.76-0.32-1.42-0.77-1.99-1.35c-0.57-0.57-1.01-1.24-1.33-2
			c-0.32-0.76-0.49-1.57-0.49-2.42v-6.23h2.48v6.23c0,0.52,0.1,1.01,0.29,1.47c0.19,0.46,0.46,0.87,0.81,1.21
			c0.34,0.34,0.74,0.61,1.2,0.81c0.45,0.19,0.94,0.29,1.46,0.29s1.01-0.1,1.47-0.29c0.46-0.19,0.87-0.46,1.21-0.81
			c0.34-0.34,0.61-0.75,0.81-1.21c0.19-0.46,0.29-0.95,0.29-1.47v-6.23H48.53z"/>
		<path class="st2" d="M59.07,28.21l6.12,15.34l6.1-15.34h1.94L66.2,45.73h-1.99l-7.18-17.52H59.07z"/>
		<path class="st3" d="M71.53,39.5c0-0.87,0.16-1.68,0.49-2.43c0.32-0.75,0.77-1.41,1.33-1.97c0.57-0.57,1.23-1.01,1.99-1.33
			c0.76-0.32,1.57-0.49,2.42-0.49c0.87,0,1.68,0.16,2.43,0.49c0.75,0.32,1.41,0.77,1.99,1.33c0.57,0.57,1.02,1.22,1.35,1.97
			c0.32,0.75,0.49,1.56,0.49,2.43c0,0.85-0.16,1.66-0.49,2.42c-0.33,0.76-0.77,1.43-1.35,2c-0.58,0.57-1.24,1.02-1.99,1.35
			c-0.75,0.32-1.56,0.49-2.43,0.49c-0.85,0-1.66-0.16-2.42-0.49c-0.76-0.32-1.42-0.77-1.99-1.35c-0.57-0.57-1.01-1.24-1.33-2
			C71.69,41.16,71.53,40.36,71.53,39.5z M73.98,39.5c0,0.52,0.1,1.01,0.29,1.47c0.2,0.46,0.46,0.87,0.81,1.21
			c0.34,0.34,0.75,0.61,1.21,0.81c0.46,0.19,0.96,0.29,1.47,0.29c0.52,0,1.01-0.1,1.47-0.29c0.46-0.19,0.87-0.46,1.21-0.81
			c0.34-0.34,0.61-0.75,0.81-1.21c0.19-0.46,0.29-0.95,0.29-1.47s-0.1-1.01-0.29-1.46c-0.2-0.45-0.46-0.85-0.81-1.2
			c-0.34-0.34-0.75-0.61-1.21-0.81c-0.46-0.19-0.96-0.29-1.47-0.29c-0.52,0-1.01,0.1-1.47,0.29c-0.46,0.19-0.87,0.46-1.21,0.81
			c-0.34,0.34-0.61,0.74-0.81,1.2C74.07,38.5,73.98,38.98,73.98,39.5z"/>
		<path class="st3" d="M93.13,43.23v2.48H91.9c-0.85,0-1.66-0.16-2.42-0.49c-0.76-0.32-1.43-0.77-2-1.35
			c-0.57-0.57-1.02-1.24-1.35-2s-0.49-1.57-0.49-2.42V28.21h2.47v7.51h5.01v2.48h-5.01v1.25c0,0.52,0.1,1.01,0.29,1.47
			c0.2,0.46,0.46,0.87,0.81,1.21c0.34,0.34,0.75,0.61,1.21,0.81c0.46,0.19,0.96,0.29,1.47,0.29H93.13z"/>
		<path class="st3" d="M104.34,41.31l1.75,1.75l-0.86,0.86c-0.59,0.59-1.27,1.05-2.03,1.36c-0.76,0.32-1.56,0.47-2.39,0.47
			c-0.83,0-1.63-0.16-2.39-0.47c-0.76-0.32-1.44-0.77-2.03-1.36c-0.61-0.61-1.07-1.3-1.36-2.07c-0.3-0.77-0.45-1.55-0.45-2.35
			s0.15-1.58,0.45-2.34c0.3-0.76,0.75-1.45,1.36-2.06c0.61-0.61,1.3-1.07,2.07-1.38s1.55-0.46,2.35-0.46c0.8,0,1.58,0.15,2.35,0.46
			c0.77,0.31,1.46,0.76,2.07,1.38l0.86,0.86l-6.92,6.92c0.7,0.35,1.45,0.47,2.24,0.35c0.79-0.12,1.48-0.48,2.07-1.07L104.34,41.31z
			 M98.14,36.83c-0.74,0.74-1.11,1.63-1.11,2.67c0,0.57,0.13,1.12,0.39,1.64c0.22-0.22,0.56-0.56,1.02-1.02
			c0.45-0.45,0.94-0.94,1.45-1.45c0.51-0.51,1-1,1.47-1.46c0.47-0.46,0.84-0.82,1.1-1.08c-0.71-0.35-1.45-0.47-2.24-0.36
			C99.42,35.89,98.73,36.24,98.14,36.83z"/>
	</g>
</g>
</svg>
